<?xml version="1.0" encoding="UTF-8"?>
<svg id="Layer_1" xmlns="http://www.w3.org/2000/svg" version="1.1" viewBox="0 0 2000 2000" width="32" height="32">
  <defs>
    <style>
      .st0 {
        fill: #7257ba;
      }
    </style>
  </defs>
  <path class="st0" d="M1472.69,484.82h-732.95c-2.79,0-5.58.29-8.32.84-1.24.25-2.39.71-3.59,1.06-1.46.42-2.93.76-4.34,1.34-1.43.59-2.72,1.4-4.06,2.14-1.08.59-2.21,1.07-3.25,1.76-2.34,1.56-4.53,3.34-6.51,5.32l-212.38,212.38c-1.99,1.98-3.76,4.17-5.33,6.51-.68,1.02-1.14,2.12-1.73,3.18-.75,1.36-1.57,2.67-2.17,4.12-.58,1.4-.91,2.86-1.34,4.3-.36,1.21-.82,2.37-1.07,3.62-.55,2.75-.84,5.53-.84,8.32v732.95c0,23.46,19.02,42.49,42.49,42.49h732.95c2.79,0,5.57-.29,8.32-.84,1.25-.25,2.4-.72,3.61-1.07,1.45-.42,2.91-.76,4.32-1.34,1.43-.59,2.73-1.41,4.07-2.15,1.08-.59,2.2-1.06,3.23-1.75,2.34-1.56,4.53-3.34,6.51-5.32l212.38-212.38c1.99-1.98,3.76-4.17,5.33-6.51.68-1.02,1.14-2.12,1.73-3.18.75-1.36,1.57-2.67,2.17-4.12.58-1.4.91-2.86,1.34-4.3.36-1.21.82-2.37,1.07-3.62.55-2.75.84-5.53.84-8.32v-732.95c0-23.46-19.02-42.49-42.49-42.49ZM782.23,1217.77v-647.97h647.97v159.35h-432.93v64.54h-58.32v202.79h63.4v61.95h271.13v-84.97h-249.55v-159.34h406.28v403.66h-647.97Z"/>
</svg>
